<svg width="77" height="72" viewBox="0 0 77 72" fill="none" xmlns="http://www.w3.org/2000/svg">
<path d="M12.4512 71.1914H64.1114C72.461 71.1914 76.5625 67.0899 76.5625 58.8867V12.3047C76.5625 4.10159 72.461 0 64.1114 0H12.4512C4.15038 0 0 4.10159 0 12.3047V58.8867C0 67.0899 4.15038 71.1914 12.4512 71.1914ZM11.7676 64.1113C8.74028 64.1113 7.03128 62.5 7.03128 59.3262V22.6074C7.03128 19.4336 8.74028 17.8223 11.7676 17.8223H64.7461C67.7735 17.8223 69.5313 19.4336 69.5313 22.6074V59.3262C69.5313 62.5 67.7735 64.1113 64.7461 64.1113H11.7676ZM30.8594 31.6406H33.1055C34.5703 31.6406 35.0586 31.1524 35.0586 29.7363V27.4903C35.0586 26.0742 34.5703 25.586 33.1055 25.586H30.8594C29.4434 25.586 28.9551 26.0742 28.9551 27.4903V29.7363C28.9551 31.1524 29.4434 31.6406 30.8594 31.6406ZM43.4571 31.6406H45.7032C47.1192 31.6406 47.6074 31.1524 47.6074 29.7363V27.4903C47.6074 26.0742 47.1192 25.586 45.7032 25.586H43.4571C41.9922 25.586 41.5039 26.0742 41.5039 27.4903V29.7363C41.5039 31.1524 41.9922 31.6406 43.4571 31.6406ZM56.0059 31.6406H58.252C59.668 31.6406 60.2051 31.1524 60.2051 29.7363V27.4903C60.2051 26.0742 59.668 25.586 58.252 25.586H56.0059C54.541 25.586 54.0528 26.0742 54.0528 27.4903V29.7363C54.0528 31.1524 54.541 31.6406 56.0059 31.6406ZM18.3106 43.9942H20.5567C22.0215 43.9942 22.5098 43.5059 22.5098 42.0899V39.8438C22.5098 38.4278 22.0215 37.9395 20.5567 37.9395H18.3106C16.8946 37.9395 16.3574 38.4278 16.3574 39.8438V42.0899C16.3574 43.5059 16.8946 43.9942 18.3106 43.9942ZM30.8594 43.9942H33.1055C34.5703 43.9942 35.0586 43.5059 35.0586 42.0899V39.8438C35.0586 38.4278 34.5703 37.9395 33.1055 37.9395H30.8594C29.4434 37.9395 28.9551 38.4278 28.9551 39.8438V42.0899C28.9551 43.5059 29.4434 43.9942 30.8594 43.9942ZM43.4571 43.9942H45.7032C47.1192 43.9942 47.6074 43.5059 47.6074 42.0899V39.8438C47.6074 38.4278 47.1192 37.9395 45.7032 37.9395H43.4571C41.9922 37.9395 41.5039 38.4278 41.5039 39.8438V42.0899C41.5039 43.5059 41.9922 43.9942 43.4571 43.9942ZM56.0059 43.9942H58.252C59.668 43.9942 60.2051 43.5059 60.2051 42.0899V39.8438C60.2051 38.4278 59.668 37.9395 58.252 37.9395H56.0059C54.541 37.9395 54.0528 38.4278 54.0528 39.8438V42.0899C54.0528 43.5059 54.541 43.9942 56.0059 43.9942ZM18.3106 56.3477H20.5567C22.0215 56.3477 22.5098 55.8594 22.5098 54.4434V52.1973C22.5098 50.7813 22.0215 50.293 20.5567 50.293H18.3106C16.8946 50.293 16.3574 50.7813 16.3574 52.1973V54.4434C16.3574 55.8594 16.8946 56.3477 18.3106 56.3477ZM30.8594 56.3477H33.1055C34.5703 56.3477 35.0586 55.8594 35.0586 54.4434V52.1973C35.0586 50.7813 34.5703 50.293 33.1055 50.293H30.8594C29.4434 50.293 28.9551 50.7813 28.9551 52.1973V54.4434C28.9551 55.8594 29.4434 56.3477 30.8594 56.3477ZM43.4571 56.3477H45.7032C47.1192 56.3477 47.6074 55.8594 47.6074 54.4434V52.1973C47.6074 50.7813 47.1192 50.293 45.7032 50.293H43.4571C41.9922 50.293 41.5039 50.7813 41.5039 52.1973V54.4434C41.5039 55.8594 41.9922 56.3477 43.4571 56.3477Z" fill="black"/>
</svg>
